<mxfile host="65bd71144e">
    <diagram name="PÃ¡gina-1" id="T87jH5dkgKL7ntDPRCxD">
        <mxGraphModel dx="1205" dy="513" grid="1" gridSize="10" guides="1" tooltips="1" connect="1" arrows="1" fold="1" page="1" pageScale="1" pageWidth="827" pageHeight="1169" background="none" math="0" shadow="1">
            <root>
                <mxCell id="0"/>
                <mxCell id="1" parent="0"/>
                <mxCell id="GftIb2SkkK98f4xfdX1H-11" value="" style="edgeStyle=orthogonalEdgeStyle;rounded=0;orthogonalLoop=1;jettySize=auto;html=1;labelBackgroundColor=none;strokeColor=#0B4D6A;fontColor=default;" parent="1" target="GftIb2SkkK98f4xfdX1H-2" edge="1">
                    <mxGeometry relative="1" as="geometry">
                        <mxPoint x="270" y="130" as="sourcePoint"/>
                    </mxGeometry>
                </mxCell>
                <mxCell id="GftIb2SkkK98f4xfdX1H-17" value="" style="edgeStyle=orthogonalEdgeStyle;rounded=0;orthogonalLoop=1;jettySize=auto;html=1;labelBackgroundColor=none;strokeColor=#0B4D6A;fontColor=default;" parent="1" source="GftIb2SkkK98f4xfdX1H-2" target="GftIb2SkkK98f4xfdX1H-3" edge="1">
                    <mxGeometry relative="1" as="geometry"/>
                </mxCell>
                <mxCell id="GftIb2SkkK98f4xfdX1H-2" value="ler x" style="shape=parallelogram;perimeter=parallelogramPerimeter;whiteSpace=wrap;html=1;fixedSize=1;labelBackgroundColor=none;fillColor=#09555B;strokeColor=#BAC8D3;fontColor=#EEEEEE;" parent="1" vertex="1">
                    <mxGeometry x="210" y="190" width="120" height="60" as="geometry"/>
                </mxCell>
                <mxCell id="GftIb2SkkK98f4xfdX1H-14" value="" style="edgeStyle=orthogonalEdgeStyle;rounded=0;orthogonalLoop=1;jettySize=auto;html=1;labelBackgroundColor=none;strokeColor=#0B4D6A;fontColor=default;" parent="1" source="GftIb2SkkK98f4xfdX1H-3" target="GftIb2SkkK98f4xfdX1H-4" edge="1">
                    <mxGeometry relative="1" as="geometry"/>
                </mxCell>
                <mxCell id="GftIb2SkkK98f4xfdX1H-3" value="ler y" style="shape=parallelogram;perimeter=parallelogramPerimeter;whiteSpace=wrap;html=1;fixedSize=1;labelBackgroundColor=none;fillColor=#09555B;strokeColor=#BAC8D3;fontColor=#EEEEEE;" parent="1" vertex="1">
                    <mxGeometry x="210" y="310" width="120" height="60" as="geometry"/>
                </mxCell>
                <mxCell id="GftIb2SkkK98f4xfdX1H-15" value="" style="edgeStyle=orthogonalEdgeStyle;rounded=0;orthogonalLoop=1;jettySize=auto;html=1;labelBackgroundColor=none;strokeColor=#0B4D6A;fontColor=default;" parent="1" source="GftIb2SkkK98f4xfdX1H-4" target="GftIb2SkkK98f4xfdX1H-5" edge="1">
                    <mxGeometry relative="1" as="geometry"/>
                </mxCell>
                <mxCell id="GftIb2SkkK98f4xfdX1H-4" value="r = (x + y) / 2" style="rounded=0;whiteSpace=wrap;html=1;labelBackgroundColor=none;fillColor=#09555B;strokeColor=#BAC8D3;fontColor=#EEEEEE;" parent="1" vertex="1">
                    <mxGeometry x="210" y="430" width="120" height="60" as="geometry"/>
                </mxCell>
                <mxCell id="GftIb2SkkK98f4xfdX1H-20" value="" style="edgeStyle=orthogonalEdgeStyle;rounded=0;orthogonalLoop=1;jettySize=auto;html=1;labelBackgroundColor=none;strokeColor=#0B4D6A;fontColor=default;" parent="1" source="GftIb2SkkK98f4xfdX1H-5" target="GftIb2SkkK98f4xfdX1H-19" edge="1">
                    <mxGeometry relative="1" as="geometry"/>
                </mxCell>
                <mxCell id="GftIb2SkkK98f4xfdX1H-5" value="escrever r" style="shape=document;whiteSpace=wrap;html=1;boundedLbl=1;labelBackgroundColor=none;fillColor=#09555B;strokeColor=#BAC8D3;fontColor=#EEEEEE;" parent="1" vertex="1">
                    <mxGeometry x="210" y="545" width="120" height="80" as="geometry"/>
                </mxCell>
                <mxCell id="GftIb2SkkK98f4xfdX1H-18" value="inicio" style="rounded=1;whiteSpace=wrap;html=1;labelBackgroundColor=none;fillColor=#09555B;strokeColor=#BAC8D3;fontColor=#EEEEEE;" parent="1" vertex="1">
                    <mxGeometry x="210" y="70" width="120" height="60" as="geometry"/>
                </mxCell>
                <mxCell id="GftIb2SkkK98f4xfdX1H-19" value="fim" style="rounded=1;whiteSpace=wrap;html=1;labelBackgroundColor=none;fillColor=#09555B;strokeColor=#BAC8D3;fontColor=#EEEEEE;" parent="1" vertex="1">
                    <mxGeometry x="220" y="760" width="120" height="60" as="geometry"/>
                </mxCell>
                <mxCell id="4" value="" style="edgeStyle=none;html=1;" parent="1" source="2" target="3" edge="1">
                    <mxGeometry relative="1" as="geometry"/>
                </mxCell>
                <mxCell id="2" value="teste" style="shape=document;whiteSpace=wrap;html=1;boundedLbl=1;" parent="1" vertex="1">
                    <mxGeometry x="80" y="630" width="120" height="80" as="geometry"/>
                </mxCell>
                <mxCell id="5" value="" style="edgeStyle=none;html=1;" parent="1" source="3" target="GftIb2SkkK98f4xfdX1H-19" edge="1">
                    <mxGeometry relative="1" as="geometry"/>
                </mxCell>
                <mxCell id="3" value="" style="shape=waypoint;sketch=0;size=6;pointerEvents=1;points=[];fillColor=default;resizable=0;rotatable=0;perimeter=centerPerimeter;snapToPoint=1;" parent="1" vertex="1">
                    <mxGeometry x="230" y="660" width="20" height="20" as="geometry"/>
                </mxCell>
            </root>
        </mxGraphModel>
    </diagram>
</mxfile>